# xmcd
#
# Track frame offsets:
# 150
# 19666
# 41313
# 60039
# 81329
# 102678
# 120770
# 137162
# 158325
# 176349
# 192299
# 210280
# 229289
# 250523
# 266645
# 288487
# 307205
# 327701
#
# Disc length: 4626 seconds
#
#
# Revision: 1
# Processed by: cddbd v1.5.1PL0 Copyright (c) Steve Scherf et al.
# Submitted via: FreeRIP 2.91 
#
DISCID=ef121012
DTITLE=Brandy - The Best of Brandy
DYEAR=2005
DGENRE=R&B
TTITLE0=Baby
TTITLE1=Best Friend
TTITLE2=I Wanna Be Down
TTITLE3=Brokenhearted (Featuring Wanya Morris)
TTITLE4=Angel In Disguise
TTITLE5=The Boy Is Mine (Duet with Monica)
TTITLE6=Almost Doesn't Count
TTITLE7=Top Of The World (Featruing Mase)
TTITLE8=U Don't Know Me (Like U Used To) (Featuring Shaunta and Da Brat)
TTITLE9=Have You Ever?
TTITLE10=Full Moon
TTITLE11=What About Us?
TTITLE12=Who Is She 2 U
TTITLE13=Talk About Our Love (Featuring Kanye West)
TTITLE14=Sittin' Up In My Room
TTITLE15=Rock With You - Quincy Jones wit Brandy and Heavy D
TTITLE16=Another Day In Paradise - With Ray J
TTITLE17=I Wanna Be Down (Remix featuring Queen Latifah, Yoyo and MC Lyte
EXTD=
EXTT0=
EXTT1=
EXTT2=
EXTT3=
EXTT4=
EXTT5=
EXTT6=
EXTT7=
EXTT8=
EXTT9=
EXTT10=
EXTT11=
EXTT12=
EXTT13=
EXTT14=
EXTT15=
EXTT16=
EXTT17=
PLAYORDER=
